<?xml version="1.0" encoding="UTF-8"?><svg version="1.1" viewBox="0 0 50 150" xmlns="http://www.w3.org/2000/svg">
<path fill="#8a8489" d="m0,15 m25 81.2c-7.1333 0-12.733-2.8667-16.8-8.6-4.0667-5.8-6.1-14.033-6.1-24.7 0-10.733 2.0333-18.9 6.1-24.5 4.0667-5.6 9.6667-8.4 16.8-8.4s12.733 2.8 16.8 8.4 6.1 13.767 6.1 24.5c0 10.667-2.0333 18.9-6.1 24.7-4.0667 5.7333-9.6667 8.6-16.8 8.6zm0-6.6c4.4667 0 8.1-2.1667 10.9-6.5 2.8667-4.3333 4.3-11.067 4.3-20.2 0-4.6-.3667-8.5333-1.1-11.8-.7333-3.3333-1.8-6.0667-3.2-8.2-1.3333-2.2-2.9333-3.8-4.8-4.8s-3.9-1.5-6.1-1.5-4.2333.5-6.1 1.5-3.5 2.6-4.9 4.8c-1.3333 2.1333-2.3667 4.8667-3.1 8.2-.7333 3.2667-1.1 7.2-1.1 11.8 0 9.1333 1.4 15.867 4.2 20.2 2.8667 4.3333 6.5333 6.5 11 6.5zm0-20.7c-1.6667 0-3.1333-.5667-4.4-1.7-1.2-1.2-1.8-2.8667-1.8-5 0-2.0667.6-3.6667 1.8-4.8 1.2667-1.2 2.7333-1.8 4.4-1.8s3.1.6 4.3 1.8c1.2667 1.1333 1.9 2.7333 1.9 4.8 0 2.1333-.6333 3.8-1.9 5-1.2 1.1333-2.6333 1.7-4.3 1.7z"/>
</svg>