<?xml version="1.0" encoding="UTF-8"?><svg version="1.1" viewBox="0 -15 50 150" xmlns="http://www.w3.org/2000/svg">
<path fill="#bf344b" d="m3.35 80v-6.8h18.4v-47h-14.3v-5.3q5.7-.8 9.5-1.9t6.9-2.8h6.1v57h16.7v6.8z"/>
<path fill="#bf344b" d="m 30 5 a 5 5 0 0 1 -5 5 5 5 0 0 1 -5 -5 5 5 0 0 1 5 -5 5 5 0 0 1 5 5 z"/>
<path fill="#bf344b" d="m 30 -10 a 5 5 0 0 1 -5 5 5 5 0 0 1 -5 -5 5 5 0 0 1 5 -5 5 5 0 0 1 5 5 z"/>
<path fill="#bf344b" d="m -2 100 h 54 v 5 h -54 z"/>
<path fill="#bf344b" d="m -2 90 h 54 v 5 h -54 z"/>
</svg>