<?xml version="1.0" encoding="UTF-8"?><svg version="1.1" viewBox="0 -15 50 150" xmlns="http://www.w3.org/2000/svg">
<path fill="#87d989" d="m32.6 80v-17.6h-32.9v-5.5l31.9-40.7h8.8v39.6h9.9v6.6h-9.9v17.6zm-23.8-24.2h23.8v-19.8q.1-2.6.2-5.6.1-3.1.3-5.7h-.5q-1.5 2.3-3.2 4.7-1.7 2.3-3.3 4.6z"/>
<path fill="#87d989" d="m 30 5 a 5 5 0 0 1 -5 5 5 5 0 0 1 -5 -5 5 5 0 0 1 5 -5 5 5 0 0 1 5 5 z"/>
<path fill="#87d989" d="m 30 -10 a 5 5 0 0 1 -5 5 5 5 0 0 1 -5 -5 5 5 0 0 1 5 -5 5 5 0 0 1 5 5 z"/>
<path fill="#87d989" d="m -2 100 h 54 v 5 h -54 z"/>
<path fill="#87d989" d="m -2 90 h 54 v 5 h -54 z"/>
</svg>