<?xml version="1.0" encoding="UTF-8"?><svg version="1.1" viewBox="0 -15 50 150" xmlns="http://www.w3.org/2000/svg">
<path fill="#1385af" d="m24.171 81.2q-4.3 0-7.8-.8-3.4-.7-6.2-1.9-2.7-1.2-5-2.7-2.2-1.6-4-3.3l4.1-5.4q1.6 1.4 3.4 2.8 1.8 1.3 3.9 2.3 2.2 1 4.8 1.6 2.7.6 5.9.6 3.4 0 6.3-1 3-1.1 5.2-3t3.4-4.6q1.3-2.7 1.3-6 0-6.6-4.3-10.3-4.2-3.7-11.4-3.7-4 0-6.8 1t-6.2 2.9l-4.4-2.8 2.1-30.7h36.1v7.1h-28.8l-1.7 18.9q2.8-1.2 5.4-1.9 2.7-.7 6.4-.7 4.6 0 8.6 1.2t6.9 3.7q3 2.4 4.7 6.2 1.7 3.7 1.7 8.9t-2 9.2q-1.9 4-5.2 6.8-3.3 2.7-7.6 4.2-4.2 1.4-8.8 1.4z"/>
<path fill="#1385af" d="m -2 90 h 54 v 5 h -54 z"/>
</svg>