<?xml version="1.0" encoding="UTF-8"?><svg version="1.1" viewBox="0 0 60 150" xmlns="http://www.w3.org/2000/svg">
<g transform="matrix(0.9 0 0 0.9 -45 0)">
<path fill="#8088e2" d="m 45 62.5 l 2 -1 v-37.5 l -2 1 z"/>
<path fill="#8088e2" d="m 53 76 l 2 -1 v-37.5 l -2 1 z"/>
<path fill="#8088e2" d="m 46 62 v-5 l8,-4 v5  z"/>
<path fill="#8088e2" d="m 46 42 v5 l8,-4 v-5  z"/>
</g>

<path fill="#8088e2" d="m5,15 m26.55 81.2q-5.2 0-9.7-1.9-4.4-1.9-7.7-5.7-3.3-3.9-5.2-9.6-1.8-5.8-1.8-13.5 0-9.6 2.2-16.3 2.2-6.8 5.9-11 3.7-4.3 8.5-6.2 4.9-2 10.1-2 5.9 0 10.2 2 4.4 1.9 7.6 4.8l-4.6 5.1q-2.5-2.3-5.8-3.6-3.3-1.4-6.9-1.4-3.8 0-7.3 1.4t-6.2 4.6q-2.6 3.2-4.3 8.5-1.6 5.2-1.7 12.9 3.9-3.8 8.6-6 4.7-2.3 9.5-2.3 4.4 0 8 1.3 3.7 1.2 6.3 3.7 2.7 2.4 4.1 6.1 1.5 3.7 1.5 8.6 0 4.6-1.8 8.4-1.7 3.7-4.6 6.4t-6.8 4.2q-3.8 1.5-8.1 1.5zm0-6.5q2.8 0 5.3-1t4.3-2.8q1.8-1.9 2.8-4.4 1.1-2.6 1.1-5.8 0-6.6-3.5-10-3.5-3.5-10.1-3.5-3.8 0-8.2 2-4.3 2-8.1 6.6.9 9.3 5.1 14.1 4.3 4.8 11.3 4.8z"/>

<ellipse fill="#8088e2" rx="5" ry="5" cx="30" cy="20"/>

<rect fill="#8088e2" width="60" height="5" x="0" y="108"/>
<rect fill="#8088e2" width="60" height="5" x="0" y="100"/>
</svg>