<?xml version="1.0" encoding="UTF-8"?><svg version="1.1" viewBox="0 0 60 150" xmlns="http://www.w3.org/2000/svg">
<g transform="matrix(0.9 0 0 0.9 -45 0)">
<path fill="#87d989" d="m 45 62.5 l 2 -1 v-37.5 l -2 1 z"/>
<path fill="#87d989" d="m 53 76 l 2 -1 v-37.5 l -2 1 z"/>
<path fill="#87d989" d="m 46 62 v-5 l8,-4 v5  z"/>
<path fill="#87d989" d="m 46 42 v5 l8,-4 v-5  z"/>
</g>

<path fill="#87d989" d="m5,15 m32.6 80v-17.6h-32.9v-5.5l31.9-40.7h8.8v39.6h9.9v6.6h-9.9v17.6zm-23.8-24.2h23.8v-19.8q.1-2.6.2-5.6.1-3.1.3-5.7h-.5q-1.5 2.3-3.2 4.7-1.7 2.3-3.3 4.6z"/>

<ellipse fill="#87d989" rx="5" ry="5" cx="30" cy="20"/>

<rect fill="#87d989" width="60" height="5" x="0" y="108"/>
<rect fill="#87d989" width="60" height="5" x="0" y="100"/>
</svg>