<?xml version="1.0" encoding="UTF-8"?><svg version="1.1" viewBox="0 0 60 150" xmlns="http://www.w3.org/2000/svg">
<g transform="matrix(0.9 0 0 0.9 -45 0)">
<path fill="#ea8127" d="m 45 62.5 l 2 -1 v-37.5 l -2 1 z"/>
<path fill="#ea8127" d="m 53 76 l 2 -1 v-37.5 l -2 1 z"/>
<path fill="#ea8127" d="m 46 62 v-5 l8,-4 v5  z"/>
<path fill="#ea8127" d="m 46 42 v5 l8,-4 v-5  z"/>
</g>

<path fill="#ea8127" d="m6,15 m2.75 80v-4.9q8.1-7.2 14.3-13 6.3-5.8 10.5-10.6 4.3-4.9 6.5-9.1t2.2-8.2q0-5.5-3.4-9t-10.5-3.5q-4.5 0-8.4 2.3-3.8 2.2-6.9 5.4l-4.7-4.7q4.3-4.4 9.2-7 5-2.7 11.8-2.7 4.8 0 8.6 1.4 3.9 1.3 6.6 3.8 2.7 2.4 4.1 5.9 1.5 3.5 1.5 7.7 0 4.5-2.2 9.1-2.1 4.5-6 9.4-3.9 4.8-9.3 10.1-5.4 5.2-11.9 11.1 3-.2 6-.4t5.9-.2h21v7.1z"/>

<rect fill="#ea8127" width="60" height="5" x="0" y="100"/>
</svg>