<?xml version="1.0" encoding="UTF-8"?><svg version="1.1" viewBox="0 0 60 150" xmlns="http://www.w3.org/2000/svg">
<g transform="matrix(0.9 0 0 0.9 -45 0)">
<path fill="#82a12b" d="m 40 45 v5 l20,-10 v-5  z"/>
<path fill="#82a12b" d="m 40 65 v-5 l20,-10 v5  z"/>
<path fill="#82a12b" d="m 45 80 l 2 -1 v-55 l -2 1 z"/>
<path fill="#82a12b" d="m 53 76 l 2 -1 v-55 l -2 1 z"/>
</g>

<path fill="#82a12b" d="m5,15 m32.6 80v-17.6h-32.9v-5.5l31.9-40.7h8.8v39.6h9.9v6.6h-9.9v17.6zm-23.8-24.2h23.8v-19.8q.1-2.6.2-5.6.1-3.1.3-5.7h-.5q-1.5 2.3-3.2 4.7-1.7 2.3-3.3 4.6z"/>
</svg>