<?xml version="1.0" encoding="UTF-8"?><svg version="1.1" viewBox="0 0 60 150" xmlns="http://www.w3.org/2000/svg">
<g transform="matrix(0.9 0 0 0.9 -45 0)">
<path fill="#ce8ce3" d="m 45 80 l 2 -1 v-55 l -2 1 z"/>
<path fill="#ce8ce3" stroke="none" d="m 45 81 a8 18 30 1 0 1 -30  v2  a4.4 8 25 1 1 -1 25z"/>
</g>


<path fill="#ce8ce3" d="m5,15 m17.6 80q.4-9.1 1.7-16.5 1.3-7.5 3.8-14.2t6.3-13q3.9-6.3 9.4-13h-36.8v-7.1h46.2v5.1q-6.3 7.2-10.4 13.8t-6.6 13.5q-2.5 6.8-3.6 14.4t-1.4 17z"/>

<ellipse fill="#ce8ce3" rx="5" ry="5" cx="30" cy="5"/>
<ellipse fill="#ce8ce3" rx="5" ry="5" cx="30" cy="20"/>

<rect fill="#ce8ce3" width="60" height="5" x="0" y="100"/>
</svg>