<?xml version="1.0" encoding="UTF-8"?><svg version="1.1" viewBox="0 0 60 150" xmlns="http://www.w3.org/2000/svg">
<g transform="matrix(0.9 0 0 0.9 -45 0)">
<path fill="#f7ce50" d="m 45 80 l 2 -1 v-55 l -2 1 z"/>
<path fill="#f7ce50" stroke="none" d="m 45 81 a8 18 30 1 0 1 -30  v2  a4.4 8 25 1 1 -1 25z"/>
</g>


<path fill="#f7ce50" d="m5,15 m24.95 81.2q-8.3 0-13.9-2.7-5.6-2.8-9.1-6.3l4.2-5.4q3.2 3 7.6 5.3 4.5 2.3 10.7 2.3 3.3 0 6.1-.8 2.8-.9 4.8-2.4 2.1-1.5 3.2-3.6 1.2-2.2 1.2-4.9 0-2.8-1.3-5.1-1.2-2.4-4-4.1t-7.2-2.6-10.7-.9v-6.3q5.7 0 9.6-.9 4-.9 6.5-2.5t3.6-3.8q1.2-2.2 1.2-4.7 0-4.7-3.6-7.4-3.5-2.7-9.4-2.7-4.5 0-8.5 1.8t-7.2 4.7l-4.4-5.2q4-3.5 9.1-5.7 5.1-2.3 11.3-2.3 4.5 0 8.3 1.1 3.9 1.1 6.7 3.2 2.9 2 4.5 5t1.6 6.9q0 5.8-3.8 9.5t-9.8 5.7v.4q3.2.7 6 2.1 2.9 1.3 5.1 3.4 2.2 2 3.4 4.7 1.3 2.7 1.3 6 0 4.2-1.8 7.6t-5 5.8q-3.1 2.3-7.3 3.6-4.2 1.2-9 1.2z"/>

<ellipse fill="#f7ce50" rx="5" ry="5" cx="30" cy="20"/>

<rect fill="#f7ce50" width="60" height="5" x="0" y="108"/>
<rect fill="#f7ce50" width="60" height="5" x="0" y="100"/>
</svg>